# xmcd
#
# Track frame offsets: 
#        150
#        10177
#        20840
#        26763
#        36262
#        44722
#        53597
#        66722
#        76025
#        88814
#        96485
#        106387
#        116408
#        126519
#
# Disc length: 1833 seconds
#
# Revision: 2
# Processed by: cddbd v1.5.2PL0 Copyright (c) Steve Scherf et al.
# Submitted via: ExactAudioCopyFreeDBPlugin 1.0
#
DISCID=c507270e
DTITLE=Johnny Cash - Trilogy - Greatest! [CD3]
DYEAR=2010
DGENRE=Country
TTITLE0=Goodbye Little Darlin'
TTITLE1=I Just Thought You'd Like To Know
TTITLE2=You Tell Me
TTITLE3=It's Just About Time
TTITLE4=I Forgot To Remember To Forget
TTITLE5=Katy Too
TTITLE6=Thanks A Lot
TTITLE7=Luther Played The Boogie
TTITLE8=You Win Again
TTITLE9=Hey, Good Lookin'
TTITLE10=I Could Never Be Ashamed Of You
TTITLE11=Get Rhythm
TTITLE12=Straight A's In Love (Bonus)
TTITLE13=I Love You Because (Bonus)
EXTD=
EXTT0=
EXTT1=
EXTT2=
EXTT3=
EXTT4=
EXTT5=
EXTT6=
EXTT7=
EXTT8=
EXTT9=
EXTT10=
EXTT11=
EXTT12=
EXTT13=
PLAYORDER=
